<svg width="46" height="18" viewBox="0 0 46 18" fill="none" xmlns="http://www.w3.org/2000/svg">
<path d="M3.924 12.096C2.86 12.096 2.008 11.896 1.368 11.496C0.728 11.088 0.408 10.468 0.408 9.636C0.408 9.196 0.484 8.86 0.636 8.628C0.788 8.396 1.012 8.28 1.308 8.28C1.524 8.28 1.7 8.336 1.836 8.448C1.972 8.56 2.04 8.704 2.04 8.88C2.04 9.04 2.028 9.18 2.004 9.3C2.004 9.332 1.996 9.388 1.98 9.468C1.972 9.548 1.968 9.632 1.968 9.72C1.968 10.08 2.148 10.348 2.508 10.524C2.876 10.7 3.388 10.788 4.044 10.788C4.724 10.788 5.256 10.668 5.64 10.428C6.024 10.18 6.216 9.836 6.216 9.396C6.216 9.124 6.128 8.892 5.952 8.7C5.776 8.5 5.556 8.336 5.292 8.208C5.028 8.072 4.656 7.908 4.176 7.716C3.56 7.476 3.056 7.248 2.664 7.032C2.28 6.816 1.948 6.524 1.668 6.156C1.396 5.78 1.26 5.316 1.26 4.764C1.26 4.188 1.412 3.676 1.716 3.228C2.028 2.78 2.472 2.432 3.048 2.184C3.632 1.936 4.316 1.812 5.1 1.812C5.684 1.812 6.22 1.9 6.708 2.076C7.196 2.244 7.584 2.504 7.872 2.856C8.168 3.208 8.316 3.64 8.316 4.152C8.316 4.656 8.24 5.036 8.088 5.292C7.936 5.548 7.712 5.676 7.416 5.676C7.208 5.676 7.032 5.612 6.888 5.484C6.752 5.356 6.684 5.204 6.684 5.028C6.684 4.876 6.696 4.736 6.72 4.608C6.744 4.368 6.756 4.216 6.756 4.152C6.756 3.816 6.592 3.56 6.264 3.384C5.936 3.208 5.528 3.12 5.04 3.12C4.352 3.12 3.824 3.248 3.456 3.504C3.096 3.752 2.916 4.104 2.916 4.56C2.916 4.864 3.008 5.124 3.192 5.34C3.384 5.556 3.62 5.736 3.9 5.88C4.18 6.024 4.572 6.196 5.076 6.396C5.684 6.644 6.172 6.868 6.54 7.068C6.908 7.268 7.22 7.54 7.476 7.884C7.74 8.228 7.872 8.652 7.872 9.156C7.872 10.1 7.512 10.828 6.792 11.34C6.08 11.844 5.124 12.096 3.924 12.096ZM13.4443 9.324C13.5483 9.324 13.6283 9.372 13.6843 9.468C13.7483 9.564 13.7803 9.696 13.7803 9.864C13.7803 10.184 13.7043 10.432 13.5523 10.608C13.2083 11.032 12.8323 11.38 12.4243 11.652C12.0243 11.924 11.5683 12.06 11.0563 12.06C10.3523 12.06 9.82831 11.74 9.48431 11.1C9.14831 10.46 8.98031 9.632 8.98031 8.616C8.98031 7.64 9.10431 6.528 9.35231 5.28C9.60831 4.032 9.98031 2.96 10.4683 2.064C10.9643 1.168 11.5523 0.719999 12.2323 0.719999C12.6163 0.719999 12.9163 0.899999 13.1323 1.26C13.3563 1.612 13.4683 2.12 13.4683 2.784C13.4683 3.736 13.2043 4.84 12.6763 6.096C12.1483 7.352 11.4323 8.596 10.5283 9.828C10.5843 10.156 10.6763 10.392 10.8043 10.536C10.9323 10.672 11.1003 10.74 11.3083 10.74C11.6363 10.74 11.9243 10.648 12.1723 10.464C12.4203 10.272 12.7363 9.948 13.1203 9.492C13.2163 9.38 13.3243 9.324 13.4443 9.324ZM11.9683 1.908C11.7843 1.908 11.5763 2.24 11.3443 2.904C11.1123 3.568 10.9083 4.392 10.7323 5.376C10.5563 6.36 10.4603 7.304 10.4443 8.208C11.0123 7.272 11.4643 6.336 11.8003 5.4C12.1363 4.456 12.3043 3.596 12.3043 2.82C12.3043 2.212 12.1923 1.908 11.9683 1.908ZM18.1624 9.324C18.2664 9.324 18.3464 9.372 18.4024 9.468C18.4664 9.564 18.4984 9.696 18.4984 9.864C18.4984 10.184 18.4224 10.432 18.2704 10.608C17.9744 10.968 17.5544 11.3 17.0104 11.604C16.4744 11.908 15.8984 12.06 15.2824 12.06C14.4424 12.06 13.7904 11.832 13.3264 11.376C12.8624 10.92 12.6304 10.296 12.6304 9.504C12.6304 8.952 12.7464 8.44 12.9784 7.968C13.2104 7.488 13.5304 7.108 13.9384 6.828C14.3544 6.548 14.8224 6.408 15.3424 6.408C15.8064 6.408 16.1784 6.548 16.4584 6.828C16.7384 7.1 16.8784 7.472 16.8784 7.944C16.8784 8.496 16.6784 8.972 16.2784 9.372C15.8864 9.764 15.2184 10.076 14.2744 10.308C14.4744 10.676 14.8544 10.86 15.4144 10.86C15.7744 10.86 16.1824 10.736 16.6384 10.488C17.1024 10.232 17.5024 9.9 17.8384 9.492C17.9344 9.38 18.0424 9.324 18.1624 9.324ZM15.1384 7.584C14.8424 7.584 14.5904 7.756 14.3824 8.1C14.1824 8.444 14.0824 8.86 14.0824 9.348V9.372C14.5544 9.26 14.9264 9.092 15.1984 8.868C15.4704 8.644 15.6064 8.384 15.6064 8.088C15.6064 7.936 15.5624 7.816 15.4744 7.728C15.3944 7.632 15.2824 7.584 15.1384 7.584ZM22.8733 9.324C22.9773 9.324 23.0573 9.372 23.1133 9.468C23.1773 9.564 23.2093 9.696 23.2093 9.864C23.2093 10.184 23.1333 10.432 22.9813 10.608C22.6853 10.968 22.2653 11.3 21.7213 11.604C21.1853 11.908 20.6093 12.06 19.9933 12.06C19.1533 12.06 18.5013 11.832 18.0373 11.376C17.5733 10.92 17.3413 10.296 17.3413 9.504C17.3413 8.952 17.4573 8.44 17.6893 7.968C17.9213 7.488 18.2413 7.108 18.6493 6.828C19.0653 6.548 19.5333 6.408 20.0533 6.408C20.5173 6.408 20.8893 6.548 21.1693 6.828C21.4493 7.1 21.5893 7.472 21.5893 7.944C21.5893 8.496 21.3893 8.972 20.9893 9.372C20.5973 9.764 19.9293 10.076 18.9853 10.308C19.1853 10.676 19.5653 10.86 20.1253 10.86C20.4853 10.86 20.8933 10.736 21.3493 10.488C21.8133 10.232 22.2133 9.9 22.5493 9.492C22.6453 9.38 22.7533 9.324 22.8733 9.324ZM19.8493 7.584C19.5533 7.584 19.3013 7.756 19.0933 8.1C18.8933 8.444 18.7933 8.86 18.7933 9.348V9.372C19.2653 9.26 19.6373 9.092 19.9093 8.868C20.1813 8.644 20.3173 8.384 20.3173 8.088C20.3173 7.936 20.2733 7.816 20.1853 7.728C20.1053 7.632 19.9933 7.584 19.8493 7.584ZM28.8746 9.324C28.9786 9.324 29.0586 9.372 29.1146 9.468C29.1786 9.564 29.2106 9.696 29.2106 9.864C29.2106 10.184 29.1346 10.432 28.9826 10.608C28.6386 11.032 28.2666 11.38 27.8666 11.652C27.4746 11.924 27.0266 12.06 26.5226 12.06C26.0986 12.06 25.7546 11.908 25.4906 11.604C25.0346 11.9 24.5586 12.052 24.0626 12.06C23.9586 13.604 23.7226 14.892 23.3546 15.924C22.9866 16.964 22.4466 17.484 21.7346 17.484C21.3026 17.484 20.9826 17.328 20.7746 17.016C20.5666 16.704 20.4626 16.272 20.4626 15.72C20.4626 14.936 20.6426 14.02 21.0026 12.972C21.3626 11.932 21.9186 10.784 22.6706 9.528C22.6706 8.36 22.6626 7.548 22.6466 7.092C22.6386 6.86 22.7306 6.676 22.9226 6.54C23.1146 6.404 23.3546 6.336 23.6426 6.336C23.8106 6.336 23.9306 6.372 24.0026 6.444C24.0826 6.508 24.1266 6.64 24.1346 6.84C24.1346 7.04 24.1386 7.188 24.1466 7.284C24.4026 6.964 24.6546 6.736 24.9026 6.6C25.1506 6.456 25.4146 6.384 25.6946 6.384C26.1426 6.384 26.5066 6.564 26.7866 6.924C27.0746 7.284 27.2186 7.756 27.2186 8.34C27.2186 8.764 27.1506 9.176 27.0146 9.576C26.8786 9.976 26.6906 10.34 26.4506 10.668C26.6186 10.716 26.7586 10.74 26.8706 10.74C27.1346 10.74 27.3866 10.644 27.6266 10.452C27.8666 10.26 28.1746 9.94 28.5506 9.492C28.6466 9.38 28.7546 9.324 28.8746 9.324ZM24.1226 10.908C24.4106 10.844 24.6746 10.688 24.9146 10.44C25.1626 10.184 25.3586 9.872 25.5026 9.504C25.6466 9.128 25.7186 8.736 25.7186 8.328C25.7186 8.088 25.6706 7.908 25.5746 7.788C25.4786 7.66 25.3506 7.596 25.1906 7.596C24.9026 7.596 24.5546 7.9 24.1466 8.508C24.1386 8.86 24.1346 9.376 24.1346 10.056C24.1346 10.424 24.1306 10.708 24.1226 10.908ZM21.8306 16.308C22.0466 16.308 22.2266 15.836 22.3706 14.892C22.5146 13.956 22.6066 12.788 22.6466 11.388C22.3026 12.188 22.0306 12.952 21.8306 13.68C21.6306 14.408 21.5306 15.02 21.5306 15.516C21.5306 15.772 21.5626 15.968 21.6266 16.104C21.6826 16.24 21.7506 16.308 21.8306 16.308ZM29.816 5.616C29.48 5.616 29.228 5.54 29.06 5.388C28.892 5.228 28.808 5.008 28.808 4.728C28.808 4.448 28.916 4.216 29.132 4.032C29.356 3.84 29.632 3.744 29.96 3.744C30.256 3.744 30.496 3.816 30.68 3.96C30.864 4.104 30.956 4.308 30.956 4.572C30.956 4.892 30.852 5.148 30.644 5.34C30.436 5.524 30.16 5.616 29.816 5.616ZM29.72 12.06C29.2 12.06 28.82 11.876 28.58 11.508C28.348 11.14 28.232 10.652 28.232 10.044C28.232 9.684 28.276 9.224 28.364 8.664C28.46 8.096 28.58 7.568 28.724 7.08C28.796 6.824 28.892 6.648 29.012 6.552C29.132 6.456 29.324 6.408 29.588 6.408C29.996 6.408 30.2 6.544 30.2 6.816C30.2 7.016 30.124 7.48 29.972 8.208C29.78 9.088 29.684 9.684 29.684 9.996C29.684 10.236 29.716 10.42 29.78 10.548C29.844 10.676 29.952 10.74 30.104 10.74C30.248 10.74 30.428 10.64 30.644 10.44C30.86 10.24 31.148 9.924 31.508 9.492C31.604 9.38 31.712 9.324 31.832 9.324C31.936 9.324 32.016 9.372 32.072 9.468C32.136 9.564 32.168 9.696 32.168 9.864C32.168 10.184 32.092 10.432 31.94 10.608C31.148 11.576 30.408 12.06 29.72 12.06ZM36.5491 9.324C36.6531 9.324 36.7331 9.372 36.7891 9.468C36.8531 9.564 36.8851 9.696 36.8851 9.864C36.8851 10.184 36.8091 10.432 36.6571 10.608C36.3611 10.968 35.9411 11.3 35.3971 11.604C34.8611 11.908 34.2851 12.06 33.6691 12.06C32.8291 12.06 32.1771 11.832 31.7131 11.376C31.2491 10.92 31.0171 10.296 31.0171 9.504C31.0171 8.952 31.1331 8.44 31.3651 7.968C31.5971 7.488 31.9171 7.108 32.3251 6.828C32.7411 6.548 33.2091 6.408 33.7291 6.408C34.1931 6.408 34.5651 6.548 34.8451 6.828C35.1251 7.1 35.2651 7.472 35.2651 7.944C35.2651 8.496 35.0651 8.972 34.6651 9.372C34.2731 9.764 33.6051 10.076 32.6611 10.308C32.8611 10.676 33.2411 10.86 33.8011 10.86C34.1611 10.86 34.5691 10.736 35.0251 10.488C35.4891 10.232 35.8891 9.9 36.2251 9.492C36.3211 9.38 36.4291 9.324 36.5491 9.324ZM33.5251 7.584C33.2291 7.584 32.9771 7.756 32.7691 8.1C32.5691 8.444 32.4691 8.86 32.4691 9.348V9.372C32.9411 9.26 33.3131 9.092 33.5851 8.868C33.8571 8.644 33.9931 8.384 33.9931 8.088C33.9931 7.936 33.9491 7.816 33.8611 7.728C33.7811 7.632 33.6691 7.584 33.5251 7.584ZM38.14 12.324C37.724 12.324 37.404 12.228 37.18 12.036C36.964 11.844 36.856 11.628 36.856 11.388C36.856 11.18 36.932 11 37.084 10.848C37.236 10.696 37.46 10.62 37.756 10.62C37.86 10.62 37.98 10.632 38.116 10.656C38.26 10.672 38.368 10.684 38.44 10.692C38.432 10.484 38.384 10.288 38.296 10.104C38.216 9.92 38.112 9.744 37.984 9.576C37.856 9.4 37.736 9.248 37.624 9.12C37.376 9.592 37.128 9.984 36.88 10.296C36.64 10.608 36.376 10.904 36.088 11.184C35.944 11.328 35.792 11.4 35.632 11.4C35.504 11.4 35.4 11.356 35.32 11.268C35.24 11.172 35.2 11.056 35.2 10.92C35.2 10.76 35.256 10.612 35.368 10.476L35.524 10.284C35.964 9.74 36.296 9.292 36.52 8.94C36.656 8.708 36.816 8.4 37 8.016C37.184 7.624 37.364 7.22 37.54 6.804C37.692 6.452 38.008 6.276 38.488 6.276C38.712 6.276 38.868 6.296 38.956 6.336C39.044 6.376 39.088 6.44 39.088 6.528C39.088 6.576 39.072 6.652 39.04 6.756C39.008 6.86 38.964 6.964 38.908 7.068C38.764 7.356 38.692 7.6 38.692 7.8C38.692 7.92 38.732 8.052 38.812 8.196C38.9 8.34 39.032 8.52 39.208 8.736C39.464 9.072 39.656 9.36 39.784 9.6C39.92 9.832 39.988 10.088 39.988 10.368C39.988 10.448 39.98 10.56 39.964 10.704C40.356 10.552 40.816 10.148 41.344 9.492C41.44 9.38 41.548 9.324 41.668 9.324C41.772 9.324 41.852 9.372 41.908 9.468C41.972 9.564 42.004 9.696 42.004 9.864C42.004 10.168 41.928 10.416 41.776 10.608C41.376 11.104 40.992 11.444 40.624 11.628C40.264 11.804 39.816 11.9 39.28 11.916C38.96 12.188 38.58 12.324 38.14 12.324ZM43.0091 7.548C42.9931 7.948 42.9851 8.26 42.9851 8.484C42.9851 9.06 43.0131 9.512 43.0691 9.84C43.1331 10.16 43.2331 10.392 43.3691 10.536C43.5131 10.672 43.7091 10.74 43.9571 10.74C44.0851 10.74 44.2371 10.7 44.4131 10.62C44.5891 10.54 44.7491 10.436 44.8931 10.308C44.9811 10.228 45.0691 10.188 45.1571 10.188C45.2531 10.188 45.3291 10.244 45.3851 10.356C45.4491 10.46 45.4811 10.588 45.4811 10.74C45.4811 10.892 45.4491 11.04 45.3851 11.184C45.3291 11.328 45.2411 11.448 45.1211 11.544C44.7051 11.888 44.2331 12.06 43.7051 12.06C42.9451 12.06 42.3891 11.744 42.0371 11.112C41.6851 10.472 41.5091 9.64 41.5091 8.616C41.5091 8.264 41.5211 7.908 41.5451 7.548H41.0771C40.8371 7.548 40.6731 7.504 40.5851 7.416C40.5051 7.328 40.4651 7.188 40.4651 6.996C40.4651 6.548 40.6451 6.324 41.0051 6.324H41.6891C41.8251 5.444 42.0331 4.64 42.3131 3.912C42.5931 3.184 42.9291 2.604 43.3211 2.172C43.7211 1.74 44.1491 1.524 44.6051 1.524C44.9411 1.524 45.2051 1.672 45.3971 1.968C45.5891 2.264 45.6851 2.636 45.6851 3.084C45.6851 4.324 45.1651 5.404 44.1251 6.324H45.4691C45.5971 6.324 45.6891 6.352 45.7451 6.408C45.8011 6.464 45.8291 6.568 45.8291 6.72C45.8291 7.272 45.3771 7.548 44.4731 7.548H43.0091ZM44.2811 2.676C44.1611 2.676 44.0251 2.828 43.8731 3.132C43.7291 3.428 43.5891 3.844 43.4531 4.38C43.3251 4.908 43.2171 5.496 43.1291 6.144C43.6011 5.736 43.9531 5.28 44.1851 4.776C44.4251 4.264 44.5451 3.8 44.5451 3.384C44.5451 2.912 44.4571 2.676 44.2811 2.676Z" fill="white"/>
</svg>
